<mxfile host="app.diagrams.net" modified="2022-12-09T08:06:57.751Z" agent="5.0 (Windows NT 10.0; Win64; x64) AppleWebKit/537.36 (KHTML, like Gecko) Chrome/108.0.0.0 Safari/537.36" etag="AmrSalg94jfKa5ggD70r" version="20.5.1" type="github" pages="2">
  <diagram id="C5RBs43oDa-KdzZeNtuy" name="Page-1">
    <mxGraphModel dx="2031" dy="1189" grid="1" gridSize="10" guides="0" tooltips="1" connect="1" arrows="1" fold="1" page="1" pageScale="1" pageWidth="1654" pageHeight="1169" math="0" shadow="0">
      <root>
        <mxCell id="WIyWlLk6GJQsqaUBKTNV-0" />
        <mxCell id="WIyWlLk6GJQsqaUBKTNV-1" parent="WIyWlLk6GJQsqaUBKTNV-0" />
        <mxCell id="zkfFHV4jXpPFQw0GAbJ--0" value="&lt;&lt;interface&gt;&gt;&#xa;GameObject" style="swimlane;fontStyle=2;align=center;verticalAlign=top;childLayout=stackLayout;horizontal=1;startSize=50;horizontalStack=0;resizeParent=1;resizeLast=0;collapsible=1;marginBottom=0;rounded=0;shadow=0;strokeWidth=1;labelBackgroundColor=none;fillColor=#d5e8d4;strokeColor=#82b366;" parent="WIyWlLk6GJQsqaUBKTNV-1" vertex="1">
          <mxGeometry x="720" y="150" width="160" height="50" as="geometry">
            <mxRectangle x="230" y="140" width="160" height="26" as="alternateBounds" />
          </mxGeometry>
        </mxCell>
        <mxCell id="zkfFHV4jXpPFQw0GAbJ--6" value="SDL GameObject" style="swimlane;fontStyle=0;align=center;verticalAlign=top;childLayout=stackLayout;horizontal=1;startSize=198;horizontalStack=0;resizeParent=1;resizeLast=0;collapsible=1;marginBottom=0;rounded=0;shadow=0;strokeWidth=1;fillColor=#d5e8d4;strokeColor=#82b366;" parent="WIyWlLk6GJQsqaUBKTNV-1" vertex="1" collapsed="1">
          <mxGeometry x="720" y="270" width="160" height="26" as="geometry">
            <mxRectangle x="720" y="260" width="160" height="40" as="alternateBounds" />
          </mxGeometry>
        </mxCell>
        <mxCell id="-m-ZZblMVv4Vw5mc0v4A-51" style="edgeStyle=orthogonalEdgeStyle;rounded=0;orthogonalLoop=1;jettySize=auto;html=1;entryX=0.997;entryY=0.398;entryDx=0;entryDy=0;entryPerimeter=0;fontColor=#000000;" edge="1" parent="WIyWlLk6GJQsqaUBKTNV-1" source="-m-ZZblMVv4Vw5mc0v4A-2" target="-m-ZZblMVv4Vw5mc0v4A-22">
          <mxGeometry relative="1" as="geometry">
            <Array as="points">
              <mxPoint x="620" y="396" />
              <mxPoint x="620" y="396" />
            </Array>
          </mxGeometry>
        </mxCell>
        <mxCell id="-m-ZZblMVv4Vw5mc0v4A-2" value="GameCharacter" style="swimlane;fontStyle=0;align=center;verticalAlign=top;childLayout=stackLayout;horizontal=1;startSize=30;horizontalStack=0;resizeParent=1;resizeLast=0;collapsible=1;marginBottom=0;rounded=0;shadow=0;strokeWidth=1;" vertex="1" collapsed="1" parent="WIyWlLk6GJQsqaUBKTNV-1">
          <mxGeometry x="630" y="370" width="160" height="26" as="geometry">
            <mxRectangle x="630" y="370" width="160" height="80" as="alternateBounds" />
          </mxGeometry>
        </mxCell>
        <mxCell id="-m-ZZblMVv4Vw5mc0v4A-49" value="#m_hp : int&lt;br&gt;&lt;div style=&quot;&quot;&gt;&lt;span style=&quot;background-color: initial;&quot;&gt;#m_damage&lt;/span&gt;&lt;/div&gt;" style="text;html=1;align=left;verticalAlign=middle;resizable=0;points=[];autosize=1;strokeColor=none;fillColor=none;fontColor=#000000;" vertex="1" parent="-m-ZZblMVv4Vw5mc0v4A-2">
          <mxGeometry y="30" width="160" height="40" as="geometry" />
        </mxCell>
        <mxCell id="-m-ZZblMVv4Vw5mc0v4A-50" value="" style="endArrow=none;html=1;rounded=0;fontColor=#000000;entryX=0.995;entryY=0.915;entryDx=0;entryDy=0;entryPerimeter=0;" edge="1" parent="-m-ZZblMVv4Vw5mc0v4A-2" target="-m-ZZblMVv4Vw5mc0v4A-49">
          <mxGeometry width="50" height="50" relative="1" as="geometry">
            <mxPoint y="67" as="sourcePoint" />
            <mxPoint x="180" y="66" as="targetPoint" />
            <Array as="points">
              <mxPoint x="160" y="67" />
            </Array>
          </mxGeometry>
        </mxCell>
        <mxCell id="-m-ZZblMVv4Vw5mc0v4A-21" value="&lt;&lt;enumeration&gt;&gt;&#xa;State" style="swimlane;fontStyle=0;align=center;verticalAlign=top;childLayout=stackLayout;horizontal=1;startSize=40;horizontalStack=0;resizeParent=1;resizeLast=0;collapsible=1;marginBottom=0;rounded=0;shadow=0;strokeWidth=1;" vertex="1" parent="WIyWlLk6GJQsqaUBKTNV-1">
          <mxGeometry x="360" y="320" width="160" height="130" as="geometry">
            <mxRectangle x="630" y="370" width="160" height="26" as="alternateBounds" />
          </mxGeometry>
        </mxCell>
        <mxCell id="-m-ZZblMVv4Vw5mc0v4A-22" value="&amp;nbsp;IDLE&lt;br&gt;&amp;nbsp;WALK&lt;br&gt;&amp;nbsp;ATTACK&lt;br&gt;&amp;nbsp;HIT&lt;br&gt;&amp;nbsp;DIE" style="text;html=1;align=left;verticalAlign=middle;resizable=0;points=[];autosize=1;strokeColor=none;fillColor=none;" vertex="1" parent="-m-ZZblMVv4Vw5mc0v4A-21">
          <mxGeometry y="40" width="160" height="90" as="geometry" />
        </mxCell>
        <mxCell id="-m-ZZblMVv4Vw5mc0v4A-25" value="+State" style="text;html=1;align=center;verticalAlign=middle;resizable=0;points=[];autosize=1;strokeColor=none;fillColor=none;" vertex="1" parent="WIyWlLk6GJQsqaUBKTNV-1">
          <mxGeometry x="520" y="400" width="60" height="30" as="geometry" />
        </mxCell>
        <mxCell id="-m-ZZblMVv4Vw5mc0v4A-26" value="Player" style="swimlane;fontStyle=0;align=center;verticalAlign=bottom;childLayout=stackLayout;horizontal=1;startSize=20;horizontalStack=0;resizeParent=1;resizeLast=0;collapsible=1;marginBottom=0;rounded=0;shadow=0;strokeWidth=1;fillColor=#d5e8d4;strokeColor=#82b366;" vertex="1" collapsed="1" parent="WIyWlLk6GJQsqaUBKTNV-1">
          <mxGeometry x="420" y="570" width="160" height="26" as="geometry">
            <mxRectangle x="420" y="570" width="260" height="110" as="alternateBounds" />
          </mxGeometry>
        </mxCell>
        <mxCell id="-m-ZZblMVv4Vw5mc0v4A-41" value="" style="endArrow=none;html=1;rounded=0;fontColor=#000000;exitX=0.001;exitY=0.949;exitDx=0;exitDy=0;exitPerimeter=0;entryX=1.004;entryY=0.962;entryDx=0;entryDy=0;entryPerimeter=0;" edge="1" parent="-m-ZZblMVv4Vw5mc0v4A-26" source="-m-ZZblMVv4Vw5mc0v4A-44" target="-m-ZZblMVv4Vw5mc0v4A-44">
          <mxGeometry width="50" height="50" relative="1" as="geometry">
            <mxPoint y="90" as="sourcePoint" />
            <mxPoint x="260" y="90" as="targetPoint" />
          </mxGeometry>
        </mxCell>
        <mxCell id="-m-ZZblMVv4Vw5mc0v4A-44" value="- MoveSpeed : = 4 : int const&lt;br&gt;- m_hp = 100 : int&lt;br&gt;- m_damage = 10 : int" style="text;html=1;align=left;verticalAlign=middle;resizable=0;points=[];autosize=1;strokeColor=none;fillColor=none;fontColor=#000000;" vertex="1" parent="-m-ZZblMVv4Vw5mc0v4A-26">
          <mxGeometry y="20" width="260" height="60" as="geometry" />
        </mxCell>
        <mxCell id="-m-ZZblMVv4Vw5mc0v4A-40" value="&amp;nbsp;+ Add_GroundYpos (GroundYpos : int) : void" style="text;html=1;align=left;verticalAlign=middle;resizable=0;points=[];autosize=1;strokeColor=none;fillColor=none;fontColor=#000000;" vertex="1" parent="-m-ZZblMVv4Vw5mc0v4A-26">
          <mxGeometry y="80" width="260" height="30" as="geometry" />
        </mxCell>
        <mxCell id="-m-ZZblMVv4Vw5mc0v4A-27" value="" style="endArrow=block;endSize=10;endFill=0;shadow=0;strokeWidth=1;rounded=0;edgeStyle=elbowEdgeStyle;elbow=vertical;exitX=0.5;exitY=0;exitDx=0;exitDy=0;" edge="1" parent="WIyWlLk6GJQsqaUBKTNV-1" target="-m-ZZblMVv4Vw5mc0v4A-2" source="-m-ZZblMVv4Vw5mc0v4A-26">
          <mxGeometry width="160" relative="1" as="geometry">
            <mxPoint x="680" y="480" as="sourcePoint" />
            <mxPoint x="590" y="560" as="targetPoint" />
            <Array as="points">
              <mxPoint x="700" y="520" />
              <mxPoint x="700" y="460" />
              <mxPoint x="700" y="440" />
              <mxPoint x="710" y="460" />
              <mxPoint x="670" y="450" />
              <mxPoint x="740" y="450" />
              <mxPoint x="610" y="580" />
              <mxPoint x="590" y="610" />
            </Array>
          </mxGeometry>
        </mxCell>
        <mxCell id="-m-ZZblMVv4Vw5mc0v4A-30" value="" style="endArrow=block;endSize=10;endFill=0;shadow=0;strokeWidth=1;rounded=0;edgeStyle=elbowEdgeStyle;elbow=vertical;exitX=0.42;exitY=-0.006;exitDx=0;exitDy=0;exitPerimeter=0;" edge="1" parent="WIyWlLk6GJQsqaUBKTNV-1" source="-m-ZZblMVv4Vw5mc0v4A-45" target="-m-ZZblMVv4Vw5mc0v4A-2">
          <mxGeometry width="160" relative="1" as="geometry">
            <mxPoint x="760" y="480" as="sourcePoint" />
            <mxPoint x="700" y="400" as="targetPoint" />
            <Array as="points">
              <mxPoint x="700" y="520" />
              <mxPoint x="710" y="460" />
              <mxPoint x="670" y="450" />
              <mxPoint x="740" y="450" />
              <mxPoint x="610" y="580" />
              <mxPoint x="590" y="610" />
            </Array>
          </mxGeometry>
        </mxCell>
        <mxCell id="-m-ZZblMVv4Vw5mc0v4A-32" value="ASkull" style="swimlane;fontStyle=0;align=center;verticalAlign=top;childLayout=stackLayout;horizontal=1;startSize=30;horizontalStack=0;resizeParent=1;resizeLast=0;collapsible=1;marginBottom=0;rounded=0;shadow=0;strokeWidth=1;" vertex="1" collapsed="1" parent="WIyWlLk6GJQsqaUBKTNV-1">
          <mxGeometry x="630" y="840" width="160" height="26" as="geometry">
            <mxRectangle x="640" y="760" width="170" height="80" as="alternateBounds" />
          </mxGeometry>
        </mxCell>
        <mxCell id="-m-ZZblMVv4Vw5mc0v4A-57" value="m_hp = 100 : int&lt;br&gt;m_damage = 10 : int" style="text;html=1;align=center;verticalAlign=middle;resizable=0;points=[];autosize=1;strokeColor=none;fillColor=none;fontColor=#000000;" vertex="1" parent="-m-ZZblMVv4Vw5mc0v4A-32">
          <mxGeometry y="30" width="170" height="40" as="geometry" />
        </mxCell>
        <mxCell id="-m-ZZblMVv4Vw5mc0v4A-58" value="" style="endArrow=none;html=1;rounded=0;fontColor=#000000;exitX=0.011;exitY=0.906;exitDx=0;exitDy=0;exitPerimeter=0;entryX=0.995;entryY=0.924;entryDx=0;entryDy=0;entryPerimeter=0;" edge="1" parent="-m-ZZblMVv4Vw5mc0v4A-32" source="-m-ZZblMVv4Vw5mc0v4A-57" target="-m-ZZblMVv4Vw5mc0v4A-57">
          <mxGeometry width="50" height="50" relative="1" as="geometry">
            <mxPoint x="260" y="60" as="sourcePoint" />
            <mxPoint x="310" y="10" as="targetPoint" />
          </mxGeometry>
        </mxCell>
        <mxCell id="-m-ZZblMVv4Vw5mc0v4A-33" value="" style="endArrow=block;endSize=10;endFill=0;shadow=0;strokeWidth=1;rounded=0;edgeStyle=elbowEdgeStyle;elbow=vertical;exitX=0.5;exitY=0;exitDx=0;exitDy=0;entryX=0.5;entryY=1;entryDx=0;entryDy=0;" edge="1" parent="WIyWlLk6GJQsqaUBKTNV-1" source="-m-ZZblMVv4Vw5mc0v4A-32" target="-m-ZZblMVv4Vw5mc0v4A-45">
          <mxGeometry width="160" relative="1" as="geometry">
            <mxPoint x="810" y="750" as="sourcePoint" />
            <mxPoint x="830" y="670" as="targetPoint" />
            <Array as="points">
              <mxPoint x="770" y="760" />
              <mxPoint x="820" y="720" />
              <mxPoint x="830" y="710" />
              <mxPoint x="840" y="730" />
              <mxPoint x="800" y="720" />
              <mxPoint x="870" y="720" />
              <mxPoint x="740" y="850" />
              <mxPoint x="720" y="880" />
            </Array>
          </mxGeometry>
        </mxCell>
        <mxCell id="-m-ZZblMVv4Vw5mc0v4A-34" value="" style="endArrow=block;endSize=10;endFill=0;shadow=0;strokeWidth=1;rounded=0;edgeStyle=elbowEdgeStyle;elbow=vertical;entryX=0.5;entryY=1;entryDx=0;entryDy=0;exitX=0.442;exitY=0.004;exitDx=0;exitDy=0;exitPerimeter=0;" edge="1" parent="WIyWlLk6GJQsqaUBKTNV-1" source="-m-ZZblMVv4Vw5mc0v4A-59" target="-m-ZZblMVv4Vw5mc0v4A-45">
          <mxGeometry width="160" relative="1" as="geometry">
            <mxPoint x="935" y="750" as="sourcePoint" />
            <mxPoint x="830" y="670" as="targetPoint" />
            <Array as="points">
              <mxPoint x="830" y="760" />
              <mxPoint x="870" y="720" />
              <mxPoint x="830" y="710" />
              <mxPoint x="840" y="730" />
              <mxPoint x="800" y="720" />
              <mxPoint x="870" y="720" />
              <mxPoint x="740" y="850" />
              <mxPoint x="720" y="880" />
            </Array>
          </mxGeometry>
        </mxCell>
        <mxCell id="-m-ZZblMVv4Vw5mc0v4A-36" value="" style="endArrow=block;endSize=10;endFill=0;shadow=0;strokeWidth=1;rounded=0;edgeStyle=elbowEdgeStyle;elbow=vertical;" edge="1" parent="WIyWlLk6GJQsqaUBKTNV-1" source="-m-ZZblMVv4Vw5mc0v4A-37" target="zkfFHV4jXpPFQw0GAbJ--6">
          <mxGeometry width="160" relative="1" as="geometry">
            <mxPoint x="860" y="380" as="sourcePoint" />
            <mxPoint x="800" y="300" as="targetPoint" />
            <Array as="points">
              <mxPoint x="800" y="340" />
              <mxPoint x="810" y="360" />
              <mxPoint x="770" y="350" />
              <mxPoint x="840" y="350" />
              <mxPoint x="710" y="480" />
              <mxPoint x="690" y="510" />
            </Array>
          </mxGeometry>
        </mxCell>
        <mxCell id="-m-ZZblMVv4Vw5mc0v4A-66" style="edgeStyle=orthogonalEdgeStyle;rounded=0;orthogonalLoop=1;jettySize=auto;html=1;fontColor=#000000;entryX=1;entryY=0.5;entryDx=0;entryDy=0;" edge="1" parent="WIyWlLk6GJQsqaUBKTNV-1" source="-m-ZZblMVv4Vw5mc0v4A-37" target="-m-ZZblMVv4Vw5mc0v4A-26">
          <mxGeometry relative="1" as="geometry">
            <mxPoint x="600" y="580" as="targetPoint" />
            <Array as="points">
              <mxPoint x="950" y="583" />
            </Array>
          </mxGeometry>
        </mxCell>
        <mxCell id="-m-ZZblMVv4Vw5mc0v4A-37" value="BackGround" style="swimlane;fontStyle=0;align=center;verticalAlign=top;childLayout=stackLayout;horizontal=1;startSize=30;horizontalStack=0;resizeParent=1;resizeLast=0;collapsible=1;marginBottom=0;rounded=0;shadow=0;strokeWidth=1;fillColor=#d5e8d4;strokeColor=#82b366;" vertex="1" collapsed="1" parent="WIyWlLk6GJQsqaUBKTNV-1">
          <mxGeometry x="890" y="370" width="160" height="26" as="geometry">
            <mxRectangle x="890" y="370" width="220" height="110" as="alternateBounds" />
          </mxGeometry>
        </mxCell>
        <mxCell id="-m-ZZblMVv4Vw5mc0v4A-62" value="&lt;div&gt;+ move_byPlayer : void&lt;/div&gt;&lt;div&gt;+ BlockCheck() : void&lt;/div&gt;&lt;div&gt;+ BlockInstall( MapFloor : int) : void&lt;/div&gt;&lt;div&gt;+ AABBCheck() : void&lt;/div&gt;" style="text;html=1;align=left;verticalAlign=middle;resizable=0;points=[];autosize=1;strokeColor=none;fillColor=none;fontColor=#000000;" vertex="1" parent="-m-ZZblMVv4Vw5mc0v4A-37">
          <mxGeometry y="30" width="220" height="70" as="geometry" />
        </mxCell>
        <mxCell id="-m-ZZblMVv4Vw5mc0v4A-63" value="" style="endArrow=none;html=1;rounded=0;fontColor=#000000;exitX=-0.001;exitY=0.943;exitDx=0;exitDy=0;exitPerimeter=0;entryX=1.015;entryY=0.953;entryDx=0;entryDy=0;entryPerimeter=0;" edge="1" parent="-m-ZZblMVv4Vw5mc0v4A-37" source="-m-ZZblMVv4Vw5mc0v4A-62" target="-m-ZZblMVv4Vw5mc0v4A-62">
          <mxGeometry width="50" height="50" relative="1" as="geometry">
            <mxPoint y="210" as="sourcePoint" />
            <mxPoint x="220" y="95" as="targetPoint" />
          </mxGeometry>
        </mxCell>
        <mxCell id="-m-ZZblMVv4Vw5mc0v4A-39" value="Item" style="swimlane;fontStyle=0;align=center;verticalAlign=top;childLayout=stackLayout;horizontal=1;startSize=198;horizontalStack=0;resizeParent=1;resizeLast=0;collapsible=1;marginBottom=0;rounded=0;shadow=0;strokeWidth=1;" vertex="1" collapsed="1" parent="WIyWlLk6GJQsqaUBKTNV-1">
          <mxGeometry x="1160" y="370" width="120" height="26" as="geometry">
            <mxRectangle x="1160" y="370" width="110" height="30" as="alternateBounds" />
          </mxGeometry>
        </mxCell>
        <mxCell id="-m-ZZblMVv4Vw5mc0v4A-45" value="Monster" style="swimlane;fontStyle=0;align=center;verticalAlign=bottom;childLayout=stackLayout;horizontal=1;startSize=20;horizontalStack=0;resizeParent=1;resizeLast=0;collapsible=1;marginBottom=0;rounded=0;shadow=0;strokeWidth=1;fillColor=#d5e8d4;strokeColor=#82b366;" vertex="1" collapsed="1" parent="WIyWlLk6GJQsqaUBKTNV-1">
          <mxGeometry x="710" y="660" width="160" height="26" as="geometry">
            <mxRectangle x="720" y="610" width="260" height="90" as="alternateBounds" />
          </mxGeometry>
        </mxCell>
        <mxCell id="-m-ZZblMVv4Vw5mc0v4A-46" value="" style="endArrow=none;html=1;rounded=0;fontColor=#000000;" edge="1" parent="-m-ZZblMVv4Vw5mc0v4A-45">
          <mxGeometry width="50" height="50" relative="1" as="geometry">
            <mxPoint y="48" as="sourcePoint" />
            <mxPoint x="260" y="48" as="targetPoint" />
          </mxGeometry>
        </mxCell>
        <mxCell id="-m-ZZblMVv4Vw5mc0v4A-47" value="- MoveSpeed : int const" style="text;html=1;align=left;verticalAlign=middle;resizable=0;points=[];autosize=1;strokeColor=none;fillColor=none;fontColor=#000000;" vertex="1" parent="-m-ZZblMVv4Vw5mc0v4A-45">
          <mxGeometry y="20" width="260" height="30" as="geometry" />
        </mxCell>
        <mxCell id="-m-ZZblMVv4Vw5mc0v4A-48" value="+ Add_GroundYpos (GroundYpos : int) : void&lt;br&gt;+&amp;nbsp;stateMachine() : void" style="text;html=1;align=left;verticalAlign=middle;resizable=0;points=[];autosize=1;strokeColor=none;fillColor=none;fontColor=#000000;" vertex="1" parent="-m-ZZblMVv4Vw5mc0v4A-45">
          <mxGeometry y="50" width="260" height="40" as="geometry" />
        </mxCell>
        <mxCell id="-m-ZZblMVv4Vw5mc0v4A-59" value="KSkull" style="swimlane;fontStyle=0;align=center;verticalAlign=top;childLayout=stackLayout;horizontal=1;startSize=30;horizontalStack=0;resizeParent=1;resizeLast=0;collapsible=1;marginBottom=0;rounded=0;shadow=0;strokeWidth=1;" vertex="1" collapsed="1" parent="WIyWlLk6GJQsqaUBKTNV-1">
          <mxGeometry x="850" y="840" width="160" height="26" as="geometry">
            <mxRectangle x="860" y="760" width="170" height="80" as="alternateBounds" />
          </mxGeometry>
        </mxCell>
        <mxCell id="-m-ZZblMVv4Vw5mc0v4A-60" value="m_hp = 150 : int&lt;br&gt;m_damage = 8 : int" style="text;html=1;align=center;verticalAlign=middle;resizable=0;points=[];autosize=1;strokeColor=none;fillColor=none;fontColor=#000000;" vertex="1" parent="-m-ZZblMVv4Vw5mc0v4A-59">
          <mxGeometry y="30" width="170" height="40" as="geometry" />
        </mxCell>
        <mxCell id="-m-ZZblMVv4Vw5mc0v4A-61" value="" style="endArrow=none;html=1;rounded=0;fontColor=#000000;exitX=0.011;exitY=0.906;exitDx=0;exitDy=0;exitPerimeter=0;entryX=0.995;entryY=0.924;entryDx=0;entryDy=0;entryPerimeter=0;" edge="1" parent="-m-ZZblMVv4Vw5mc0v4A-59" source="-m-ZZblMVv4Vw5mc0v4A-60" target="-m-ZZblMVv4Vw5mc0v4A-60">
          <mxGeometry width="50" height="50" relative="1" as="geometry">
            <mxPoint x="260" y="60" as="sourcePoint" />
            <mxPoint x="310" y="10" as="targetPoint" />
          </mxGeometry>
        </mxCell>
        <mxCell id="-m-ZZblMVv4Vw5mc0v4A-68" value="&lt;&lt;enumeration&gt;&gt;&#xa;ItemType" style="swimlane;fontStyle=0;align=center;verticalAlign=top;childLayout=stackLayout;horizontal=1;startSize=40;horizontalStack=0;resizeParent=1;resizeLast=0;collapsible=1;marginBottom=0;rounded=0;shadow=0;strokeWidth=1;" vertex="1" parent="WIyWlLk6GJQsqaUBKTNV-1">
          <mxGeometry x="1370" y="350" width="160" height="70" as="geometry">
            <mxRectangle x="630" y="370" width="160" height="26" as="alternateBounds" />
          </mxGeometry>
        </mxCell>
        <mxCell id="-m-ZZblMVv4Vw5mc0v4A-69" value="TBox" style="text;html=1;align=left;verticalAlign=middle;resizable=0;points=[];autosize=1;strokeColor=none;fillColor=none;" vertex="1" parent="-m-ZZblMVv4Vw5mc0v4A-68">
          <mxGeometry y="40" width="160" height="30" as="geometry" />
        </mxCell>
        <mxCell id="-m-ZZblMVv4Vw5mc0v4A-70" value="+ItemType" style="text;html=1;align=center;verticalAlign=middle;resizable=0;points=[];autosize=1;strokeColor=none;fillColor=none;" vertex="1" parent="WIyWlLk6GJQsqaUBKTNV-1">
          <mxGeometry x="1300" y="380" width="80" height="30" as="geometry" />
        </mxCell>
        <mxCell id="-m-ZZblMVv4Vw5mc0v4A-76" value="LoadParam" style="swimlane;fontStyle=0;align=center;verticalAlign=top;childLayout=stackLayout;horizontal=1;startSize=50;horizontalStack=0;resizeParent=1;resizeLast=0;collapsible=1;marginBottom=0;rounded=0;shadow=0;strokeWidth=1;labelBackgroundColor=none;fillColor=#d5e8d4;strokeColor=#82b366;" vertex="1" parent="WIyWlLk6GJQsqaUBKTNV-1">
          <mxGeometry x="1010" y="160" width="140" height="30" as="geometry">
            <mxRectangle x="1010" y="160" width="160" height="26" as="alternateBounds" />
          </mxGeometry>
        </mxCell>
        <mxCell id="-m-ZZblMVv4Vw5mc0v4A-79" value="Vector2D" style="swimlane;fontStyle=0;align=center;verticalAlign=top;childLayout=stackLayout;horizontal=1;startSize=50;horizontalStack=0;resizeParent=1;resizeLast=0;collapsible=1;marginBottom=0;rounded=0;shadow=0;strokeWidth=1;labelBackgroundColor=none;fillColor=#d5e8d4;strokeColor=#82b366;" vertex="1" parent="WIyWlLk6GJQsqaUBKTNV-1">
          <mxGeometry x="1010" y="270" width="140" height="30" as="geometry">
            <mxRectangle x="1010" y="270" width="160" height="26" as="alternateBounds" />
          </mxGeometry>
        </mxCell>
        <mxCell id="-m-ZZblMVv4Vw5mc0v4A-81" value="TextManager" style="swimlane;fontStyle=0;align=center;verticalAlign=top;childLayout=stackLayout;horizontal=1;startSize=50;horizontalStack=0;resizeParent=1;resizeLast=0;collapsible=1;marginBottom=0;rounded=0;shadow=0;strokeWidth=1;labelBackgroundColor=none;fillColor=#d5e8d4;strokeColor=#82b366;" vertex="1" parent="WIyWlLk6GJQsqaUBKTNV-1">
          <mxGeometry x="460" y="260" width="140" height="30" as="geometry">
            <mxRectangle x="230" y="140" width="160" height="26" as="alternateBounds" />
          </mxGeometry>
        </mxCell>
        <mxCell id="-m-ZZblMVv4Vw5mc0v4A-92" value="" style="endArrow=open;endSize=12;dashed=1;html=1;rounded=0;fontColor=#000000;" edge="1" parent="WIyWlLk6GJQsqaUBKTNV-1" source="zkfFHV4jXpPFQw0GAbJ--0" target="-m-ZZblMVv4Vw5mc0v4A-76">
          <mxGeometry width="160" relative="1" as="geometry">
            <mxPoint x="880" y="170" as="sourcePoint" />
            <mxPoint x="1040" y="170" as="targetPoint" />
          </mxGeometry>
        </mxCell>
        <mxCell id="-m-ZZblMVv4Vw5mc0v4A-94" value="" style="endArrow=open;endSize=12;dashed=1;html=1;rounded=0;fontColor=#000000;entryX=0;entryY=0.4;entryDx=0;entryDy=0;entryPerimeter=0;" edge="1" parent="WIyWlLk6GJQsqaUBKTNV-1" source="zkfFHV4jXpPFQw0GAbJ--6" target="-m-ZZblMVv4Vw5mc0v4A-79">
          <mxGeometry width="160" relative="1" as="geometry">
            <mxPoint x="890" y="185" as="sourcePoint" />
            <mxPoint x="1020" y="185" as="targetPoint" />
          </mxGeometry>
        </mxCell>
        <mxCell id="-m-ZZblMVv4Vw5mc0v4A-99" value="" style="html=1;verticalAlign=bottom;endArrow=open;dashed=1;endSize=8;rounded=0;fontColor=#000000;entryX=1;entryY=0.5;entryDx=0;entryDy=0;" edge="1" parent="WIyWlLk6GJQsqaUBKTNV-1" source="-m-ZZblMVv4Vw5mc0v4A-26" target="-m-ZZblMVv4Vw5mc0v4A-104">
          <mxGeometry relative="1" as="geometry">
            <mxPoint x="420" y="580" as="sourcePoint" />
            <mxPoint x="340" y="583" as="targetPoint" />
          </mxGeometry>
        </mxCell>
        <mxCell id="-m-ZZblMVv4Vw5mc0v4A-104" value="Input Handler" style="swimlane;fontStyle=0;align=center;verticalAlign=top;childLayout=stackLayout;horizontal=1;startSize=50;horizontalStack=0;resizeParent=1;resizeLast=0;collapsible=1;marginBottom=0;rounded=0;shadow=0;strokeWidth=1;labelBackgroundColor=none;fillColor=#d5e8d4;strokeColor=#82b366;" vertex="1" parent="WIyWlLk6GJQsqaUBKTNV-1">
          <mxGeometry x="230" y="570" width="140" height="30" as="geometry">
            <mxRectangle x="230" y="140" width="160" height="26" as="alternateBounds" />
          </mxGeometry>
        </mxCell>
        <mxCell id="-m-ZZblMVv4Vw5mc0v4A-107" value="BattleManager" style="swimlane;fontStyle=0;align=center;verticalAlign=top;childLayout=stackLayout;horizontal=1;startSize=80;horizontalStack=0;resizeParent=1;resizeLast=0;collapsible=1;marginBottom=0;rounded=0;shadow=0;strokeWidth=1;" vertex="1" parent="WIyWlLk6GJQsqaUBKTNV-1">
          <mxGeometry x="420" y="660" width="170" height="30" as="geometry">
            <mxRectangle x="410" y="680" width="160" height="26" as="alternateBounds" />
          </mxGeometry>
        </mxCell>
        <mxCell id="-m-ZZblMVv4Vw5mc0v4A-114" value="" style="html=1;verticalAlign=bottom;endArrow=block;rounded=0;fontColor=#000000;exitX=0.471;exitY=0.033;exitDx=0;exitDy=0;exitPerimeter=0;" edge="1" parent="WIyWlLk6GJQsqaUBKTNV-1" source="-m-ZZblMVv4Vw5mc0v4A-107" target="-m-ZZblMVv4Vw5mc0v4A-26">
          <mxGeometry width="80" relative="1" as="geometry">
            <mxPoint x="580" y="750" as="sourcePoint" />
            <mxPoint x="660" y="750" as="targetPoint" />
          </mxGeometry>
        </mxCell>
        <mxCell id="-m-ZZblMVv4Vw5mc0v4A-115" value="" style="html=1;verticalAlign=bottom;endArrow=block;rounded=0;fontColor=#000000;" edge="1" parent="WIyWlLk6GJQsqaUBKTNV-1" source="-m-ZZblMVv4Vw5mc0v4A-107" target="-m-ZZblMVv4Vw5mc0v4A-45">
          <mxGeometry width="80" relative="1" as="geometry">
            <mxPoint x="590" y="670" as="sourcePoint" />
            <mxPoint x="670" y="670" as="targetPoint" />
          </mxGeometry>
        </mxCell>
        <mxCell id="-m-ZZblMVv4Vw5mc0v4A-117" value="" style="endArrow=open;endSize=12;dashed=1;html=1;rounded=0;fontColor=#000000;" edge="1" parent="WIyWlLk6GJQsqaUBKTNV-1" source="zkfFHV4jXpPFQw0GAbJ--6" target="-m-ZZblMVv4Vw5mc0v4A-81">
          <mxGeometry width="160" relative="1" as="geometry">
            <mxPoint x="610" y="270.0019047619047" as="sourcePoint" />
            <mxPoint x="740" y="271.24" as="targetPoint" />
          </mxGeometry>
        </mxCell>
        <mxCell id="-m-ZZblMVv4Vw5mc0v4A-118" value="InterfaceManger" style="swimlane;fontStyle=0;align=center;verticalAlign=top;childLayout=stackLayout;horizontal=1;startSize=50;horizontalStack=0;resizeParent=1;resizeLast=0;collapsible=1;marginBottom=0;rounded=0;shadow=0;strokeWidth=1;labelBackgroundColor=none;" vertex="1" parent="WIyWlLk6GJQsqaUBKTNV-1">
          <mxGeometry x="120" y="460" width="140" height="30" as="geometry">
            <mxRectangle x="120" y="460" width="160" height="26" as="alternateBounds" />
          </mxGeometry>
        </mxCell>
        <mxCell id="-m-ZZblMVv4Vw5mc0v4A-119" value="" style="html=1;verticalAlign=bottom;endArrow=block;rounded=0;fontColor=#000000;entryX=0.133;entryY=0.027;entryDx=0;entryDy=0;entryPerimeter=0;" edge="1" parent="WIyWlLk6GJQsqaUBKTNV-1" source="-m-ZZblMVv4Vw5mc0v4A-118" target="-m-ZZblMVv4Vw5mc0v4A-26">
          <mxGeometry x="-0.0985" y="-8" width="80" relative="1" as="geometry">
            <mxPoint x="190" y="515" as="sourcePoint" />
            <mxPoint x="460" y="600" as="targetPoint" />
            <Array as="points">
              <mxPoint x="190" y="515" />
              <mxPoint x="440" y="515" />
            </Array>
            <mxPoint as="offset" />
          </mxGeometry>
        </mxCell>
        <mxCell id="-m-ZZblMVv4Vw5mc0v4A-124" value="" style="html=1;verticalAlign=bottom;endArrow=block;rounded=0;fontColor=#000000;" edge="1" parent="WIyWlLk6GJQsqaUBKTNV-1" source="-m-ZZblMVv4Vw5mc0v4A-39" target="-m-ZZblMVv4Vw5mc0v4A-68">
          <mxGeometry width="80" relative="1" as="geometry">
            <mxPoint x="1280" y="380" as="sourcePoint" />
            <mxPoint x="1360" y="380" as="targetPoint" />
          </mxGeometry>
        </mxCell>
        <mxCell id="-m-ZZblMVv4Vw5mc0v4A-126" style="edgeStyle=orthogonalEdgeStyle;rounded=0;orthogonalLoop=1;jettySize=auto;html=1;fontColor=#000000;" edge="1" parent="WIyWlLk6GJQsqaUBKTNV-1" source="-m-ZZblMVv4Vw5mc0v4A-125" target="-m-ZZblMVv4Vw5mc0v4A-26">
          <mxGeometry relative="1" as="geometry" />
        </mxCell>
        <mxCell id="-m-ZZblMVv4Vw5mc0v4A-127" style="edgeStyle=orthogonalEdgeStyle;rounded=0;orthogonalLoop=1;jettySize=auto;html=1;fontColor=#000000;" edge="1" parent="WIyWlLk6GJQsqaUBKTNV-1" source="-m-ZZblMVv4Vw5mc0v4A-125" target="-m-ZZblMVv4Vw5mc0v4A-39">
          <mxGeometry relative="1" as="geometry" />
        </mxCell>
        <mxCell id="-m-ZZblMVv4Vw5mc0v4A-125" value="ColliderManager" style="swimlane;fontStyle=0;align=center;verticalAlign=top;childLayout=stackLayout;horizontal=1;startSize=30;horizontalStack=0;resizeParent=1;resizeLast=0;collapsible=1;marginBottom=0;rounded=0;shadow=0;strokeWidth=1;" vertex="1" collapsed="1" parent="WIyWlLk6GJQsqaUBKTNV-1">
          <mxGeometry x="1160" y="570" width="120" height="26" as="geometry">
            <mxRectangle x="1160" y="570" width="120" height="90" as="alternateBounds" />
          </mxGeometry>
        </mxCell>
        <mxCell id="-m-ZZblMVv4Vw5mc0v4A-129" value="" style="line;strokeWidth=1;fillColor=none;align=left;verticalAlign=middle;spacingTop=-1;spacingLeft=3;spacingRight=3;rotatable=0;labelPosition=right;points=[];portConstraint=eastwest;strokeColor=inherit;labelBackgroundColor=none;fontColor=#000000;" vertex="1" parent="-m-ZZblMVv4Vw5mc0v4A-125">
          <mxGeometry y="30" width="120" height="8" as="geometry" />
        </mxCell>
        <mxCell id="-m-ZZblMVv4Vw5mc0v4A-128" value="+AABBCheck : bool&lt;br&gt;+getColliderTag : int" style="text;html=1;align=left;verticalAlign=middle;resizable=0;points=[];autosize=1;strokeColor=none;fillColor=none;fontColor=#000000;" vertex="1" parent="-m-ZZblMVv4Vw5mc0v4A-125">
          <mxGeometry y="38" width="120" height="40" as="geometry" />
        </mxCell>
        <mxCell id="-m-ZZblMVv4Vw5mc0v4A-134" value="" style="endArrow=open;endSize=12;dashed=1;html=1;rounded=0;fontColor=#000000;entryX=0.167;entryY=0;entryDx=0;entryDy=0;entryPerimeter=0;" edge="1" parent="WIyWlLk6GJQsqaUBKTNV-1" source="-m-ZZblMVv4Vw5mc0v4A-118" target="-m-ZZblMVv4Vw5mc0v4A-125">
          <mxGeometry x="-0.01" y="8" width="160" relative="1" as="geometry">
            <mxPoint x="630" y="450" as="sourcePoint" />
            <mxPoint x="1170" y="480" as="targetPoint" />
            <Array as="points">
              <mxPoint x="1180" y="480" />
            </Array>
            <mxPoint as="offset" />
          </mxGeometry>
        </mxCell>
        <mxCell id="-m-ZZblMVv4Vw5mc0v4A-135" value="" style="endArrow=open;endSize=12;dashed=1;html=1;rounded=0;fontColor=#000000;" edge="1" parent="WIyWlLk6GJQsqaUBKTNV-1" source="-m-ZZblMVv4Vw5mc0v4A-118" target="-m-ZZblMVv4Vw5mc0v4A-81">
          <mxGeometry width="160" relative="1" as="geometry">
            <mxPoint x="200" y="270" as="sourcePoint" />
            <mxPoint x="330" y="390" as="targetPoint" />
            <Array as="points">
              <mxPoint x="190" y="275" />
            </Array>
          </mxGeometry>
        </mxCell>
        <mxCell id="-m-ZZblMVv4Vw5mc0v4A-136" value="" style="endArrow=block;dashed=1;endFill=0;endSize=12;html=1;rounded=0;fontColor=#000000;entryX=0.5;entryY=1;entryDx=0;entryDy=0;" edge="1" parent="WIyWlLk6GJQsqaUBKTNV-1" source="zkfFHV4jXpPFQw0GAbJ--6" target="zkfFHV4jXpPFQw0GAbJ--0">
          <mxGeometry width="160" relative="1" as="geometry">
            <mxPoint x="710" y="220" as="sourcePoint" />
            <mxPoint x="820" y="210" as="targetPoint" />
          </mxGeometry>
        </mxCell>
        <mxCell id="-m-ZZblMVv4Vw5mc0v4A-137" value="" style="endArrow=block;endSize=10;endFill=0;shadow=0;strokeWidth=1;rounded=0;edgeStyle=elbowEdgeStyle;elbow=vertical;entryX=0.5;entryY=1;entryDx=0;entryDy=0;" edge="1" parent="WIyWlLk6GJQsqaUBKTNV-1" source="-m-ZZblMVv4Vw5mc0v4A-2" target="zkfFHV4jXpPFQw0GAbJ--6">
          <mxGeometry width="160" relative="1" as="geometry">
            <mxPoint x="979.9999999999998" y="380" as="sourcePoint" />
            <mxPoint x="809.9999999999998" y="296" as="targetPoint" />
            <Array as="points">
              <mxPoint x="710" y="340" />
              <mxPoint x="810" y="350" />
              <mxPoint x="820" y="370" />
              <mxPoint x="780" y="360" />
              <mxPoint x="850" y="360" />
              <mxPoint x="720" y="490" />
              <mxPoint x="700" y="520" />
            </Array>
          </mxGeometry>
        </mxCell>
      </root>
    </mxGraphModel>
  </diagram>
  <diagram id="02mdmxrlyOZ17NIFUoq7" name="페이지-2">
    <mxGraphModel dx="1673" dy="979" grid="1" gridSize="10" guides="1" tooltips="1" connect="1" arrows="1" fold="1" page="1" pageScale="1" pageWidth="1654" pageHeight="1169" math="0" shadow="0">
      <root>
        <mxCell id="0" />
        <mxCell id="1" parent="0" />
        <mxCell id="hrzz1JBomfVlw1Y7Zat_-1" value="&lt;&lt;interface&gt;&gt;&#xa;GameObject" style="swimlane;fontStyle=2;align=center;verticalAlign=top;childLayout=stackLayout;horizontal=1;startSize=50;horizontalStack=0;resizeParent=1;resizeLast=0;collapsible=1;marginBottom=0;rounded=0;shadow=0;strokeWidth=1;labelBackgroundColor=none;fillColor=#d5e8d4;strokeColor=#82b366;" vertex="1" parent="1">
          <mxGeometry x="720" y="150" width="160" height="50" as="geometry">
            <mxRectangle x="720" y="150" width="160" height="26" as="alternateBounds" />
          </mxGeometry>
        </mxCell>
        <mxCell id="hrzz1JBomfVlw1Y7Zat_-2" value="SDL GameObject" style="swimlane;fontStyle=0;align=center;verticalAlign=top;childLayout=stackLayout;horizontal=1;startSize=198;horizontalStack=0;resizeParent=1;resizeLast=0;collapsible=1;marginBottom=0;rounded=0;shadow=0;strokeWidth=1;fillColor=#d5e8d4;strokeColor=#82b366;" vertex="1" collapsed="1" parent="1">
          <mxGeometry x="720" y="270" width="160" height="26" as="geometry">
            <mxRectangle x="720" y="270" width="160" height="40" as="alternateBounds" />
          </mxGeometry>
        </mxCell>
        <mxCell id="hrzz1JBomfVlw1Y7Zat_-3" style="edgeStyle=orthogonalEdgeStyle;rounded=0;orthogonalLoop=1;jettySize=auto;html=1;entryX=0.997;entryY=0.398;entryDx=0;entryDy=0;entryPerimeter=0;fontColor=#000000;" edge="1" parent="1" source="hrzz1JBomfVlw1Y7Zat_-4" target="hrzz1JBomfVlw1Y7Zat_-8">
          <mxGeometry relative="1" as="geometry">
            <Array as="points">
              <mxPoint x="620" y="396" />
              <mxPoint x="620" y="396" />
            </Array>
          </mxGeometry>
        </mxCell>
        <mxCell id="hrzz1JBomfVlw1Y7Zat_-4" value="GameCharacter" style="swimlane;fontStyle=0;align=center;verticalAlign=top;childLayout=stackLayout;horizontal=1;startSize=30;horizontalStack=0;resizeParent=1;resizeLast=0;collapsible=1;marginBottom=0;rounded=0;shadow=0;strokeWidth=1;" vertex="1" parent="1">
          <mxGeometry x="630" y="370" width="160" height="80" as="geometry">
            <mxRectangle x="630" y="370" width="160" height="26" as="alternateBounds" />
          </mxGeometry>
        </mxCell>
        <mxCell id="hrzz1JBomfVlw1Y7Zat_-5" value="#m_hp : int&lt;br&gt;&lt;div style=&quot;&quot;&gt;&lt;span style=&quot;background-color: initial;&quot;&gt;#m_damage&lt;/span&gt;&lt;/div&gt;" style="text;html=1;align=left;verticalAlign=middle;resizable=0;points=[];autosize=1;strokeColor=none;fillColor=none;fontColor=#000000;" vertex="1" parent="hrzz1JBomfVlw1Y7Zat_-4">
          <mxGeometry y="30" width="160" height="40" as="geometry" />
        </mxCell>
        <mxCell id="hrzz1JBomfVlw1Y7Zat_-6" value="" style="endArrow=none;html=1;rounded=0;fontColor=#000000;entryX=0.995;entryY=0.915;entryDx=0;entryDy=0;entryPerimeter=0;" edge="1" parent="hrzz1JBomfVlw1Y7Zat_-4" target="hrzz1JBomfVlw1Y7Zat_-5">
          <mxGeometry width="50" height="50" relative="1" as="geometry">
            <mxPoint y="67" as="sourcePoint" />
            <mxPoint x="180" y="66" as="targetPoint" />
            <Array as="points">
              <mxPoint x="160" y="67" />
            </Array>
          </mxGeometry>
        </mxCell>
        <mxCell id="hrzz1JBomfVlw1Y7Zat_-7" value="&lt;&lt;enumeration&gt;&gt;&#xa;State" style="swimlane;fontStyle=0;align=center;verticalAlign=top;childLayout=stackLayout;horizontal=1;startSize=40;horizontalStack=0;resizeParent=1;resizeLast=0;collapsible=1;marginBottom=0;rounded=0;shadow=0;strokeWidth=1;" vertex="1" parent="1">
          <mxGeometry x="360" y="320" width="160" height="130" as="geometry">
            <mxRectangle x="630" y="370" width="160" height="26" as="alternateBounds" />
          </mxGeometry>
        </mxCell>
        <mxCell id="hrzz1JBomfVlw1Y7Zat_-8" value="&amp;nbsp;IDLE&lt;br&gt;&amp;nbsp;WALK&lt;br&gt;&amp;nbsp;ATTACK&lt;br&gt;&amp;nbsp;HIT&lt;br&gt;&amp;nbsp;DIE" style="text;html=1;align=left;verticalAlign=middle;resizable=0;points=[];autosize=1;strokeColor=none;fillColor=none;" vertex="1" parent="hrzz1JBomfVlw1Y7Zat_-7">
          <mxGeometry y="40" width="160" height="90" as="geometry" />
        </mxCell>
        <mxCell id="hrzz1JBomfVlw1Y7Zat_-9" value="+State" style="text;html=1;align=center;verticalAlign=middle;resizable=0;points=[];autosize=1;strokeColor=none;fillColor=none;" vertex="1" parent="1">
          <mxGeometry x="520" y="400" width="60" height="30" as="geometry" />
        </mxCell>
        <mxCell id="hrzz1JBomfVlw1Y7Zat_-10" value="Player" style="swimlane;fontStyle=0;align=center;verticalAlign=bottom;childLayout=stackLayout;horizontal=1;startSize=20;horizontalStack=0;resizeParent=1;resizeLast=0;collapsible=1;marginBottom=0;rounded=0;shadow=0;strokeWidth=1;fillColor=#d5e8d4;strokeColor=#82b366;" vertex="1" parent="1">
          <mxGeometry x="410" y="540" width="260" height="110" as="geometry">
            <mxRectangle x="420" y="570" width="160" height="26" as="alternateBounds" />
          </mxGeometry>
        </mxCell>
        <mxCell id="hrzz1JBomfVlw1Y7Zat_-11" value="" style="endArrow=none;html=1;rounded=0;fontColor=#000000;exitX=0.001;exitY=0.949;exitDx=0;exitDy=0;exitPerimeter=0;entryX=1.004;entryY=0.962;entryDx=0;entryDy=0;entryPerimeter=0;" edge="1" parent="hrzz1JBomfVlw1Y7Zat_-10" source="hrzz1JBomfVlw1Y7Zat_-12" target="hrzz1JBomfVlw1Y7Zat_-12">
          <mxGeometry width="50" height="50" relative="1" as="geometry">
            <mxPoint y="90" as="sourcePoint" />
            <mxPoint x="260" y="90" as="targetPoint" />
          </mxGeometry>
        </mxCell>
        <mxCell id="hrzz1JBomfVlw1Y7Zat_-12" value="- MoveSpeed : = 4 : int const&lt;br&gt;- m_hp = 100 : int&lt;br&gt;- m_damage = 10 : int" style="text;html=1;align=left;verticalAlign=middle;resizable=0;points=[];autosize=1;strokeColor=none;fillColor=none;fontColor=#000000;" vertex="1" parent="hrzz1JBomfVlw1Y7Zat_-10">
          <mxGeometry y="20" width="260" height="60" as="geometry" />
        </mxCell>
        <mxCell id="hrzz1JBomfVlw1Y7Zat_-13" value="&amp;nbsp;+ Add_GroundYpos (GroundYpos : int) : void" style="text;html=1;align=left;verticalAlign=middle;resizable=0;points=[];autosize=1;strokeColor=none;fillColor=none;fontColor=#000000;" vertex="1" parent="hrzz1JBomfVlw1Y7Zat_-10">
          <mxGeometry y="80" width="260" height="30" as="geometry" />
        </mxCell>
        <mxCell id="hrzz1JBomfVlw1Y7Zat_-14" value="" style="endArrow=block;endSize=10;endFill=0;shadow=0;strokeWidth=1;rounded=0;edgeStyle=elbowEdgeStyle;elbow=vertical;exitX=0.5;exitY=0;exitDx=0;exitDy=0;" edge="1" parent="1" source="hrzz1JBomfVlw1Y7Zat_-10" target="hrzz1JBomfVlw1Y7Zat_-4">
          <mxGeometry width="160" relative="1" as="geometry">
            <mxPoint x="680" y="480" as="sourcePoint" />
            <mxPoint x="590" y="560" as="targetPoint" />
            <Array as="points">
              <mxPoint x="700" y="520" />
              <mxPoint x="700" y="460" />
              <mxPoint x="700" y="440" />
              <mxPoint x="710" y="460" />
              <mxPoint x="670" y="450" />
              <mxPoint x="740" y="450" />
              <mxPoint x="610" y="580" />
              <mxPoint x="590" y="610" />
            </Array>
          </mxGeometry>
        </mxCell>
        <mxCell id="hrzz1JBomfVlw1Y7Zat_-15" value="" style="endArrow=block;endSize=10;endFill=0;shadow=0;strokeWidth=1;rounded=0;edgeStyle=elbowEdgeStyle;elbow=vertical;exitX=0.42;exitY=-0.006;exitDx=0;exitDy=0;exitPerimeter=0;" edge="1" parent="1" source="hrzz1JBomfVlw1Y7Zat_-27" target="hrzz1JBomfVlw1Y7Zat_-4">
          <mxGeometry width="160" relative="1" as="geometry">
            <mxPoint x="760" y="480" as="sourcePoint" />
            <mxPoint x="700" y="400" as="targetPoint" />
            <Array as="points">
              <mxPoint x="700" y="520" />
              <mxPoint x="710" y="460" />
              <mxPoint x="670" y="450" />
              <mxPoint x="740" y="450" />
              <mxPoint x="610" y="580" />
              <mxPoint x="590" y="610" />
            </Array>
          </mxGeometry>
        </mxCell>
        <mxCell id="hrzz1JBomfVlw1Y7Zat_-16" value="ASkull" style="swimlane;fontStyle=0;align=center;verticalAlign=top;childLayout=stackLayout;horizontal=1;startSize=30;horizontalStack=0;resizeParent=1;resizeLast=0;collapsible=1;marginBottom=0;rounded=0;shadow=0;strokeWidth=1;" vertex="1" parent="1">
          <mxGeometry x="630" y="840" width="170" height="80" as="geometry">
            <mxRectangle x="630" y="840" width="160" height="26" as="alternateBounds" />
          </mxGeometry>
        </mxCell>
        <mxCell id="hrzz1JBomfVlw1Y7Zat_-17" value="m_hp = 100 : int&lt;br&gt;m_damage = 10 : int" style="text;html=1;align=center;verticalAlign=middle;resizable=0;points=[];autosize=1;strokeColor=none;fillColor=none;fontColor=#000000;" vertex="1" parent="hrzz1JBomfVlw1Y7Zat_-16">
          <mxGeometry y="30" width="170" height="40" as="geometry" />
        </mxCell>
        <mxCell id="hrzz1JBomfVlw1Y7Zat_-18" value="" style="endArrow=none;html=1;rounded=0;fontColor=#000000;exitX=0.011;exitY=0.906;exitDx=0;exitDy=0;exitPerimeter=0;entryX=0.995;entryY=0.924;entryDx=0;entryDy=0;entryPerimeter=0;" edge="1" parent="hrzz1JBomfVlw1Y7Zat_-16" source="hrzz1JBomfVlw1Y7Zat_-17" target="hrzz1JBomfVlw1Y7Zat_-17">
          <mxGeometry width="50" height="50" relative="1" as="geometry">
            <mxPoint x="260" y="60" as="sourcePoint" />
            <mxPoint x="310" y="10" as="targetPoint" />
          </mxGeometry>
        </mxCell>
        <mxCell id="hrzz1JBomfVlw1Y7Zat_-19" value="" style="endArrow=block;endSize=10;endFill=0;shadow=0;strokeWidth=1;rounded=0;edgeStyle=elbowEdgeStyle;elbow=vertical;exitX=0.5;exitY=0;exitDx=0;exitDy=0;entryX=0.5;entryY=1;entryDx=0;entryDy=0;" edge="1" parent="1" source="hrzz1JBomfVlw1Y7Zat_-16" target="hrzz1JBomfVlw1Y7Zat_-27">
          <mxGeometry width="160" relative="1" as="geometry">
            <mxPoint x="810" y="750" as="sourcePoint" />
            <mxPoint x="830" y="670" as="targetPoint" />
            <Array as="points">
              <mxPoint x="770" y="760" />
              <mxPoint x="820" y="720" />
              <mxPoint x="830" y="710" />
              <mxPoint x="840" y="730" />
              <mxPoint x="800" y="720" />
              <mxPoint x="870" y="720" />
              <mxPoint x="740" y="850" />
              <mxPoint x="720" y="880" />
            </Array>
          </mxGeometry>
        </mxCell>
        <mxCell id="hrzz1JBomfVlw1Y7Zat_-20" value="" style="endArrow=block;endSize=10;endFill=0;shadow=0;strokeWidth=1;rounded=0;edgeStyle=elbowEdgeStyle;elbow=vertical;entryX=0.5;entryY=1;entryDx=0;entryDy=0;exitX=0.442;exitY=0.004;exitDx=0;exitDy=0;exitPerimeter=0;" edge="1" parent="1" source="hrzz1JBomfVlw1Y7Zat_-31" target="hrzz1JBomfVlw1Y7Zat_-27">
          <mxGeometry width="160" relative="1" as="geometry">
            <mxPoint x="935" y="750" as="sourcePoint" />
            <mxPoint x="830" y="670" as="targetPoint" />
            <Array as="points">
              <mxPoint x="830" y="760" />
              <mxPoint x="870" y="720" />
              <mxPoint x="830" y="710" />
              <mxPoint x="840" y="730" />
              <mxPoint x="800" y="720" />
              <mxPoint x="870" y="720" />
              <mxPoint x="740" y="850" />
              <mxPoint x="720" y="880" />
            </Array>
          </mxGeometry>
        </mxCell>
        <mxCell id="hrzz1JBomfVlw1Y7Zat_-21" value="" style="endArrow=block;endSize=10;endFill=0;shadow=0;strokeWidth=1;rounded=0;edgeStyle=elbowEdgeStyle;elbow=vertical;" edge="1" parent="1" source="hrzz1JBomfVlw1Y7Zat_-23" target="hrzz1JBomfVlw1Y7Zat_-2">
          <mxGeometry width="160" relative="1" as="geometry">
            <mxPoint x="860" y="380" as="sourcePoint" />
            <mxPoint x="800" y="300" as="targetPoint" />
            <Array as="points">
              <mxPoint x="800" y="340" />
              <mxPoint x="810" y="360" />
              <mxPoint x="770" y="350" />
              <mxPoint x="840" y="350" />
              <mxPoint x="710" y="480" />
              <mxPoint x="690" y="510" />
            </Array>
          </mxGeometry>
        </mxCell>
        <mxCell id="hrzz1JBomfVlw1Y7Zat_-22" style="edgeStyle=orthogonalEdgeStyle;rounded=0;orthogonalLoop=1;jettySize=auto;html=1;fontColor=#000000;" edge="1" parent="1" source="hrzz1JBomfVlw1Y7Zat_-23" target="hrzz1JBomfVlw1Y7Zat_-12">
          <mxGeometry relative="1" as="geometry">
            <mxPoint x="710" y="583" as="targetPoint" />
            <Array as="points">
              <mxPoint x="950" y="583" />
            </Array>
          </mxGeometry>
        </mxCell>
        <mxCell id="hrzz1JBomfVlw1Y7Zat_-23" value="BackGround" style="swimlane;fontStyle=0;align=center;verticalAlign=top;childLayout=stackLayout;horizontal=1;startSize=30;horizontalStack=0;resizeParent=1;resizeLast=0;collapsible=1;marginBottom=0;rounded=0;shadow=0;strokeWidth=1;fillColor=#d5e8d4;strokeColor=#82b366;" vertex="1" parent="1">
          <mxGeometry x="880" y="360" width="220" height="110" as="geometry">
            <mxRectangle x="890" y="370" width="160" height="26" as="alternateBounds" />
          </mxGeometry>
        </mxCell>
        <mxCell id="hrzz1JBomfVlw1Y7Zat_-24" value="&lt;div&gt;+ move_byPlayer : void&lt;/div&gt;&lt;div&gt;+ BlockCheck() : void&lt;/div&gt;&lt;div&gt;+ BlockInstall( MapFloor : int) : void&lt;/div&gt;&lt;div&gt;+ AABBCheck() : void&lt;/div&gt;" style="text;html=1;align=left;verticalAlign=middle;resizable=0;points=[];autosize=1;strokeColor=none;fillColor=none;fontColor=#000000;" vertex="1" parent="hrzz1JBomfVlw1Y7Zat_-23">
          <mxGeometry y="30" width="220" height="70" as="geometry" />
        </mxCell>
        <mxCell id="hrzz1JBomfVlw1Y7Zat_-25" value="" style="endArrow=none;html=1;rounded=0;fontColor=#000000;exitX=-0.001;exitY=0.943;exitDx=0;exitDy=0;exitPerimeter=0;entryX=1.015;entryY=0.953;entryDx=0;entryDy=0;entryPerimeter=0;" edge="1" parent="hrzz1JBomfVlw1Y7Zat_-23" source="hrzz1JBomfVlw1Y7Zat_-24" target="hrzz1JBomfVlw1Y7Zat_-24">
          <mxGeometry width="50" height="50" relative="1" as="geometry">
            <mxPoint y="210" as="sourcePoint" />
            <mxPoint x="220" y="95" as="targetPoint" />
          </mxGeometry>
        </mxCell>
        <mxCell id="hrzz1JBomfVlw1Y7Zat_-26" value="Item" style="swimlane;fontStyle=0;align=center;verticalAlign=top;childLayout=stackLayout;horizontal=1;startSize=198;horizontalStack=0;resizeParent=1;resizeLast=0;collapsible=1;marginBottom=0;rounded=0;shadow=0;strokeWidth=1;" vertex="1" collapsed="1" parent="1">
          <mxGeometry x="1160" y="370" width="120" height="26" as="geometry">
            <mxRectangle x="1160" y="370" width="110" height="30" as="alternateBounds" />
          </mxGeometry>
        </mxCell>
        <mxCell id="hrzz1JBomfVlw1Y7Zat_-27" value="Monster" style="swimlane;fontStyle=0;align=center;verticalAlign=bottom;childLayout=stackLayout;horizontal=1;startSize=20;horizontalStack=0;resizeParent=1;resizeLast=0;collapsible=1;marginBottom=0;rounded=0;shadow=0;strokeWidth=1;fillColor=#d5e8d4;strokeColor=#82b366;" vertex="1" parent="1">
          <mxGeometry x="710" y="630" width="260" height="90" as="geometry">
            <mxRectangle x="710" y="660" width="160" height="26" as="alternateBounds" />
          </mxGeometry>
        </mxCell>
        <mxCell id="hrzz1JBomfVlw1Y7Zat_-28" value="" style="endArrow=none;html=1;rounded=0;fontColor=#000000;" edge="1" parent="hrzz1JBomfVlw1Y7Zat_-27">
          <mxGeometry width="50" height="50" relative="1" as="geometry">
            <mxPoint y="48" as="sourcePoint" />
            <mxPoint x="260" y="48" as="targetPoint" />
          </mxGeometry>
        </mxCell>
        <mxCell id="hrzz1JBomfVlw1Y7Zat_-29" value="- MoveSpeed : int const" style="text;html=1;align=left;verticalAlign=middle;resizable=0;points=[];autosize=1;strokeColor=none;fillColor=none;fontColor=#000000;" vertex="1" parent="hrzz1JBomfVlw1Y7Zat_-27">
          <mxGeometry y="20" width="260" height="30" as="geometry" />
        </mxCell>
        <mxCell id="hrzz1JBomfVlw1Y7Zat_-30" value="+ Add_GroundYpos (GroundYpos : int) : void&lt;br&gt;+&amp;nbsp;stateMachine() : void" style="text;html=1;align=left;verticalAlign=middle;resizable=0;points=[];autosize=1;strokeColor=none;fillColor=none;fontColor=#000000;" vertex="1" parent="hrzz1JBomfVlw1Y7Zat_-27">
          <mxGeometry y="50" width="260" height="40" as="geometry" />
        </mxCell>
        <mxCell id="hrzz1JBomfVlw1Y7Zat_-31" value="KSkull" style="swimlane;fontStyle=0;align=center;verticalAlign=top;childLayout=stackLayout;horizontal=1;startSize=30;horizontalStack=0;resizeParent=1;resizeLast=0;collapsible=1;marginBottom=0;rounded=0;shadow=0;strokeWidth=1;" vertex="1" parent="1">
          <mxGeometry x="850" y="840" width="170" height="80" as="geometry">
            <mxRectangle x="850" y="840" width="160" height="26" as="alternateBounds" />
          </mxGeometry>
        </mxCell>
        <mxCell id="hrzz1JBomfVlw1Y7Zat_-32" value="m_hp = 150 : int&lt;br&gt;m_damage = 8 : int" style="text;html=1;align=center;verticalAlign=middle;resizable=0;points=[];autosize=1;strokeColor=none;fillColor=none;fontColor=#000000;" vertex="1" parent="hrzz1JBomfVlw1Y7Zat_-31">
          <mxGeometry y="30" width="170" height="40" as="geometry" />
        </mxCell>
        <mxCell id="hrzz1JBomfVlw1Y7Zat_-33" value="" style="endArrow=none;html=1;rounded=0;fontColor=#000000;exitX=0.011;exitY=0.906;exitDx=0;exitDy=0;exitPerimeter=0;entryX=0.995;entryY=0.924;entryDx=0;entryDy=0;entryPerimeter=0;" edge="1" parent="hrzz1JBomfVlw1Y7Zat_-31" source="hrzz1JBomfVlw1Y7Zat_-32" target="hrzz1JBomfVlw1Y7Zat_-32">
          <mxGeometry width="50" height="50" relative="1" as="geometry">
            <mxPoint x="260" y="60" as="sourcePoint" />
            <mxPoint x="310" y="10" as="targetPoint" />
          </mxGeometry>
        </mxCell>
        <mxCell id="hrzz1JBomfVlw1Y7Zat_-34" value="&lt;&lt;enumeration&gt;&gt;&#xa;ItemType" style="swimlane;fontStyle=0;align=center;verticalAlign=top;childLayout=stackLayout;horizontal=1;startSize=40;horizontalStack=0;resizeParent=1;resizeLast=0;collapsible=1;marginBottom=0;rounded=0;shadow=0;strokeWidth=1;" vertex="1" parent="1">
          <mxGeometry x="1370" y="350" width="160" height="70" as="geometry">
            <mxRectangle x="1370" y="350" width="160" height="26" as="alternateBounds" />
          </mxGeometry>
        </mxCell>
        <mxCell id="hrzz1JBomfVlw1Y7Zat_-35" value="TBox" style="text;html=1;align=left;verticalAlign=middle;resizable=0;points=[];autosize=1;strokeColor=none;fillColor=none;" vertex="1" parent="hrzz1JBomfVlw1Y7Zat_-34">
          <mxGeometry y="40" width="160" height="30" as="geometry" />
        </mxCell>
        <mxCell id="hrzz1JBomfVlw1Y7Zat_-36" value="+ItemType" style="text;html=1;align=center;verticalAlign=middle;resizable=0;points=[];autosize=1;strokeColor=none;fillColor=none;" vertex="1" parent="1">
          <mxGeometry x="1300" y="380" width="80" height="30" as="geometry" />
        </mxCell>
        <mxCell id="hrzz1JBomfVlw1Y7Zat_-37" value="LoadParam" style="swimlane;fontStyle=0;align=center;verticalAlign=top;childLayout=stackLayout;horizontal=1;startSize=50;horizontalStack=0;resizeParent=1;resizeLast=0;collapsible=1;marginBottom=0;rounded=0;shadow=0;strokeWidth=1;labelBackgroundColor=none;fillColor=#d5e8d4;strokeColor=#82b366;" vertex="1" parent="1">
          <mxGeometry x="1010" y="160" width="140" height="30" as="geometry">
            <mxRectangle x="1010" y="160" width="160" height="26" as="alternateBounds" />
          </mxGeometry>
        </mxCell>
        <mxCell id="hrzz1JBomfVlw1Y7Zat_-38" value="Vector2D" style="swimlane;fontStyle=0;align=center;verticalAlign=top;childLayout=stackLayout;horizontal=1;startSize=50;horizontalStack=0;resizeParent=1;resizeLast=0;collapsible=1;marginBottom=0;rounded=0;shadow=0;strokeWidth=1;labelBackgroundColor=none;fillColor=#d5e8d4;strokeColor=#82b366;" vertex="1" parent="1">
          <mxGeometry x="1010" y="270" width="140" height="30" as="geometry">
            <mxRectangle x="1010" y="270" width="160" height="26" as="alternateBounds" />
          </mxGeometry>
        </mxCell>
        <mxCell id="hrzz1JBomfVlw1Y7Zat_-39" value="TextManager" style="swimlane;fontStyle=0;align=center;verticalAlign=top;childLayout=stackLayout;horizontal=1;startSize=50;horizontalStack=0;resizeParent=1;resizeLast=0;collapsible=1;marginBottom=0;rounded=0;shadow=0;strokeWidth=1;labelBackgroundColor=none;fillColor=#d5e8d4;strokeColor=#82b366;" vertex="1" parent="1">
          <mxGeometry x="460" y="260" width="140" height="30" as="geometry">
            <mxRectangle x="230" y="140" width="160" height="26" as="alternateBounds" />
          </mxGeometry>
        </mxCell>
        <mxCell id="hrzz1JBomfVlw1Y7Zat_-40" value="" style="endArrow=open;endSize=12;dashed=1;html=1;rounded=0;fontColor=#000000;" edge="1" parent="1" source="hrzz1JBomfVlw1Y7Zat_-1" target="hrzz1JBomfVlw1Y7Zat_-37">
          <mxGeometry width="160" relative="1" as="geometry">
            <mxPoint x="880" y="170" as="sourcePoint" />
            <mxPoint x="1040" y="170" as="targetPoint" />
          </mxGeometry>
        </mxCell>
        <mxCell id="hrzz1JBomfVlw1Y7Zat_-41" value="" style="endArrow=open;endSize=12;dashed=1;html=1;rounded=0;fontColor=#000000;entryX=0;entryY=0.4;entryDx=0;entryDy=0;entryPerimeter=0;" edge="1" parent="1" source="hrzz1JBomfVlw1Y7Zat_-2" target="hrzz1JBomfVlw1Y7Zat_-38">
          <mxGeometry width="160" relative="1" as="geometry">
            <mxPoint x="890" y="185" as="sourcePoint" />
            <mxPoint x="1020" y="185" as="targetPoint" />
          </mxGeometry>
        </mxCell>
        <mxCell id="hrzz1JBomfVlw1Y7Zat_-42" value="" style="html=1;verticalAlign=bottom;endArrow=open;dashed=1;endSize=8;rounded=0;fontColor=#000000;entryX=1;entryY=0.5;entryDx=0;entryDy=0;" edge="1" parent="1" source="hrzz1JBomfVlw1Y7Zat_-10" target="hrzz1JBomfVlw1Y7Zat_-43">
          <mxGeometry relative="1" as="geometry">
            <mxPoint x="420" y="580" as="sourcePoint" />
            <mxPoint x="340" y="583" as="targetPoint" />
          </mxGeometry>
        </mxCell>
        <mxCell id="hrzz1JBomfVlw1Y7Zat_-43" value="Input Handler" style="swimlane;fontStyle=0;align=center;verticalAlign=top;childLayout=stackLayout;horizontal=1;startSize=50;horizontalStack=0;resizeParent=1;resizeLast=0;collapsible=1;marginBottom=0;rounded=0;shadow=0;strokeWidth=1;labelBackgroundColor=none;fillColor=#d5e8d4;strokeColor=#82b366;" vertex="1" parent="1">
          <mxGeometry x="200" y="580" width="140" height="30" as="geometry">
            <mxRectangle x="200" y="580" width="160" height="26" as="alternateBounds" />
          </mxGeometry>
        </mxCell>
        <mxCell id="hrzz1JBomfVlw1Y7Zat_-44" value="BattleManager" style="swimlane;fontStyle=0;align=center;verticalAlign=top;childLayout=stackLayout;horizontal=1;startSize=80;horizontalStack=0;resizeParent=1;resizeLast=0;collapsible=1;marginBottom=0;rounded=0;shadow=0;strokeWidth=1;" vertex="1" parent="1">
          <mxGeometry x="460" y="720" width="170" height="30" as="geometry">
            <mxRectangle x="460" y="720" width="160" height="26" as="alternateBounds" />
          </mxGeometry>
        </mxCell>
        <mxCell id="hrzz1JBomfVlw1Y7Zat_-45" value="" style="html=1;verticalAlign=bottom;endArrow=block;rounded=0;fontColor=#000000;exitX=0.471;exitY=0.033;exitDx=0;exitDy=0;exitPerimeter=0;" edge="1" parent="1" source="hrzz1JBomfVlw1Y7Zat_-44" target="hrzz1JBomfVlw1Y7Zat_-10">
          <mxGeometry width="80" relative="1" as="geometry">
            <mxPoint x="580" y="750" as="sourcePoint" />
            <mxPoint x="660" y="750" as="targetPoint" />
          </mxGeometry>
        </mxCell>
        <mxCell id="hrzz1JBomfVlw1Y7Zat_-46" value="" style="html=1;verticalAlign=bottom;endArrow=block;rounded=0;fontColor=#000000;" edge="1" parent="1" target="hrzz1JBomfVlw1Y7Zat_-27">
          <mxGeometry width="80" relative="1" as="geometry">
            <mxPoint x="540" y="673" as="sourcePoint" />
            <mxPoint x="670" y="670" as="targetPoint" />
            <Array as="points">
              <mxPoint x="600" y="673" />
            </Array>
          </mxGeometry>
        </mxCell>
        <mxCell id="hrzz1JBomfVlw1Y7Zat_-47" value="" style="endArrow=open;endSize=12;dashed=1;html=1;rounded=0;fontColor=#000000;" edge="1" parent="1" source="hrzz1JBomfVlw1Y7Zat_-2" target="hrzz1JBomfVlw1Y7Zat_-39">
          <mxGeometry width="160" relative="1" as="geometry">
            <mxPoint x="610" y="270.0019047619047" as="sourcePoint" />
            <mxPoint x="740" y="271.24" as="targetPoint" />
          </mxGeometry>
        </mxCell>
        <mxCell id="hrzz1JBomfVlw1Y7Zat_-48" value="InterfaceManger" style="swimlane;fontStyle=0;align=center;verticalAlign=top;childLayout=stackLayout;horizontal=1;startSize=50;horizontalStack=0;resizeParent=1;resizeLast=0;collapsible=1;marginBottom=0;rounded=0;shadow=0;strokeWidth=1;labelBackgroundColor=none;" vertex="1" parent="1">
          <mxGeometry x="120" y="460" width="140" height="30" as="geometry">
            <mxRectangle x="120" y="460" width="160" height="26" as="alternateBounds" />
          </mxGeometry>
        </mxCell>
        <mxCell id="hrzz1JBomfVlw1Y7Zat_-49" value="" style="html=1;verticalAlign=bottom;endArrow=block;rounded=0;fontColor=#000000;entryX=0.131;entryY=0.004;entryDx=0;entryDy=0;entryPerimeter=0;" edge="1" parent="1" source="hrzz1JBomfVlw1Y7Zat_-48" target="hrzz1JBomfVlw1Y7Zat_-10">
          <mxGeometry x="-0.0985" y="-8" width="80" relative="1" as="geometry">
            <mxPoint x="190" y="515" as="sourcePoint" />
            <mxPoint x="460" y="600" as="targetPoint" />
            <Array as="points">
              <mxPoint x="190" y="515" />
              <mxPoint x="445" y="515" />
            </Array>
            <mxPoint as="offset" />
          </mxGeometry>
        </mxCell>
        <mxCell id="hrzz1JBomfVlw1Y7Zat_-50" value="" style="html=1;verticalAlign=bottom;endArrow=block;rounded=0;fontColor=#000000;" edge="1" parent="1" source="hrzz1JBomfVlw1Y7Zat_-26" target="hrzz1JBomfVlw1Y7Zat_-34">
          <mxGeometry width="80" relative="1" as="geometry">
            <mxPoint x="1280" y="380" as="sourcePoint" />
            <mxPoint x="1360" y="380" as="targetPoint" />
          </mxGeometry>
        </mxCell>
        <mxCell id="hrzz1JBomfVlw1Y7Zat_-51" style="edgeStyle=orthogonalEdgeStyle;rounded=0;orthogonalLoop=1;jettySize=auto;html=1;fontColor=#000000;entryX=0.999;entryY=0.398;entryDx=0;entryDy=0;entryPerimeter=0;" edge="1" parent="1" source="hrzz1JBomfVlw1Y7Zat_-53" target="hrzz1JBomfVlw1Y7Zat_-12">
          <mxGeometry relative="1" as="geometry" />
        </mxCell>
        <mxCell id="hrzz1JBomfVlw1Y7Zat_-52" style="edgeStyle=orthogonalEdgeStyle;rounded=0;orthogonalLoop=1;jettySize=auto;html=1;fontColor=#000000;" edge="1" parent="1" source="hrzz1JBomfVlw1Y7Zat_-53" target="hrzz1JBomfVlw1Y7Zat_-26">
          <mxGeometry relative="1" as="geometry" />
        </mxCell>
        <mxCell id="hrzz1JBomfVlw1Y7Zat_-53" value="ColliderManager" style="swimlane;fontStyle=0;align=center;verticalAlign=top;childLayout=stackLayout;horizontal=1;startSize=30;horizontalStack=0;resizeParent=1;resizeLast=0;collapsible=1;marginBottom=0;rounded=0;shadow=0;strokeWidth=1;" vertex="1" parent="1">
          <mxGeometry x="1160" y="570" width="120" height="90" as="geometry">
            <mxRectangle x="1160" y="570" width="120" height="26" as="alternateBounds" />
          </mxGeometry>
        </mxCell>
        <mxCell id="hrzz1JBomfVlw1Y7Zat_-54" value="" style="line;strokeWidth=1;fillColor=none;align=left;verticalAlign=middle;spacingTop=-1;spacingLeft=3;spacingRight=3;rotatable=0;labelPosition=right;points=[];portConstraint=eastwest;strokeColor=inherit;labelBackgroundColor=none;fontColor=#000000;" vertex="1" parent="hrzz1JBomfVlw1Y7Zat_-53">
          <mxGeometry y="30" width="120" height="8" as="geometry" />
        </mxCell>
        <mxCell id="hrzz1JBomfVlw1Y7Zat_-55" value="+AABBCheck : bool&lt;br&gt;+getColliderTag : int" style="text;html=1;align=left;verticalAlign=middle;resizable=0;points=[];autosize=1;strokeColor=none;fillColor=none;fontColor=#000000;" vertex="1" parent="hrzz1JBomfVlw1Y7Zat_-53">
          <mxGeometry y="38" width="120" height="40" as="geometry" />
        </mxCell>
        <mxCell id="hrzz1JBomfVlw1Y7Zat_-56" value="" style="endArrow=open;endSize=12;dashed=1;html=1;rounded=0;fontColor=#000000;entryX=0.167;entryY=0;entryDx=0;entryDy=0;entryPerimeter=0;" edge="1" parent="1" source="hrzz1JBomfVlw1Y7Zat_-48" target="hrzz1JBomfVlw1Y7Zat_-53">
          <mxGeometry x="-0.01" y="8" width="160" relative="1" as="geometry">
            <mxPoint x="630" y="450" as="sourcePoint" />
            <mxPoint x="1170" y="480" as="targetPoint" />
            <Array as="points">
              <mxPoint x="1180" y="480" />
            </Array>
            <mxPoint as="offset" />
          </mxGeometry>
        </mxCell>
        <mxCell id="hrzz1JBomfVlw1Y7Zat_-57" value="" style="endArrow=open;endSize=12;dashed=1;html=1;rounded=0;fontColor=#000000;" edge="1" parent="1" source="hrzz1JBomfVlw1Y7Zat_-48" target="hrzz1JBomfVlw1Y7Zat_-39">
          <mxGeometry width="160" relative="1" as="geometry">
            <mxPoint x="200" y="270" as="sourcePoint" />
            <mxPoint x="330" y="390" as="targetPoint" />
            <Array as="points">
              <mxPoint x="190" y="275" />
            </Array>
          </mxGeometry>
        </mxCell>
        <mxCell id="hrzz1JBomfVlw1Y7Zat_-58" value="" style="endArrow=block;dashed=1;endFill=0;endSize=12;html=1;rounded=0;fontColor=#000000;entryX=0.5;entryY=1;entryDx=0;entryDy=0;" edge="1" parent="1" source="hrzz1JBomfVlw1Y7Zat_-2" target="hrzz1JBomfVlw1Y7Zat_-1">
          <mxGeometry width="160" relative="1" as="geometry">
            <mxPoint x="710" y="220" as="sourcePoint" />
            <mxPoint x="820" y="210" as="targetPoint" />
          </mxGeometry>
        </mxCell>
        <mxCell id="hrzz1JBomfVlw1Y7Zat_-59" value="" style="endArrow=block;endSize=10;endFill=0;shadow=0;strokeWidth=1;rounded=0;edgeStyle=elbowEdgeStyle;elbow=vertical;entryX=0.5;entryY=1;entryDx=0;entryDy=0;" edge="1" parent="1" source="hrzz1JBomfVlw1Y7Zat_-4" target="hrzz1JBomfVlw1Y7Zat_-2">
          <mxGeometry width="160" relative="1" as="geometry">
            <mxPoint x="979.9999999999998" y="380" as="sourcePoint" />
            <mxPoint x="809.9999999999998" y="296" as="targetPoint" />
            <Array as="points">
              <mxPoint x="710" y="340" />
              <mxPoint x="810" y="350" />
              <mxPoint x="820" y="370" />
              <mxPoint x="780" y="360" />
              <mxPoint x="850" y="360" />
              <mxPoint x="720" y="490" />
              <mxPoint x="700" y="520" />
            </Array>
          </mxGeometry>
        </mxCell>
        <mxCell id="hrzz1JBomfVlw1Y7Zat_-60" style="edgeStyle=orthogonalEdgeStyle;rounded=0;orthogonalLoop=1;jettySize=auto;html=1;exitX=0;exitY=0;exitDx=0;exitDy=0;entryX=0;entryY=0.25;entryDx=0;entryDy=0;fontColor=#000000;" edge="1" parent="1" source="hrzz1JBomfVlw1Y7Zat_-44" target="hrzz1JBomfVlw1Y7Zat_-44">
          <mxGeometry relative="1" as="geometry" />
        </mxCell>
      </root>
    </mxGraphModel>
  </diagram>
</mxfile>
